# xmcd
#
# Track frame offsets: 
#        150
#        17678
#        34846
#        44777
#        64749
#        80911
#        94568
#        108507
#        123387
#        148261
#        158689
#        177914
#
# Disc length: 2758 seconds
#
# Revision: 1
# Processed by: cddbd v1.5.2PL0 Copyright (c) Steve Scherf et al.
# Submitted via: ExactAudioCopy v1.0b2
#
DISCID=a60ac40c
DTITLE=Hathors - Hathors
DYEAR=2011
DGENRE=Stoner Rock
TTITLE0=Holy Shit
TTITLE1=Pretty Kill
TTITLE2=Keeping Secrets
TTITLE3=Hula Rock
TTITLE4=Because It Hurts
TTITLE5=Delusion
TTITLE6=To Each His Own
TTITLE7=Walking On A Thin Line
TTITLE8=The Lonely Road
TTITLE9=Plastic Toy
TTITLE10=Sega Boy
TTITLE11=Light A Match And Burn Us Down
EXTD=
EXTT0=
EXTT1=
EXTT2=
EXTT3=
EXTT4=
EXTT5=
EXTT6=
EXTT7=
EXTT8=
EXTT9=
EXTT10=
EXTT11=
PLAYORDER=
